<mxfile host="app.diagrams.net" modified="2024-04-01T21:38:39.632Z" agent="Mozilla/5.0 (Windows NT 10.0; Win64; x64) AppleWebKit/537.36 (KHTML, like Gecko) Chrome/121.0.0.0 Safari/537.36 OPR/107.0.0.0" etag="-GXuMwgdBWNTJZuIWTCk" version="24.2.1" type="device">
  <diagram name="Page-1" id="OasQn-7gzOglD0dcDLVV">
    <mxGraphModel dx="1261" dy="688" grid="1" gridSize="10" guides="1" tooltips="1" connect="1" arrows="1" fold="1" page="1" pageScale="1" pageWidth="1100" pageHeight="1700" math="0" shadow="0">
      <root>
        <mxCell id="0" />
        <mxCell id="1" parent="0" />
        <mxCell id="dYqTEQ69nzzV-26pdnG4-1" value="" style="ellipse;whiteSpace=wrap;html=1;aspect=fixed;" vertex="1" parent="1">
          <mxGeometry x="430" y="110" width="50" height="50" as="geometry" />
        </mxCell>
        <mxCell id="dYqTEQ69nzzV-26pdnG4-2" value="" style="endArrow=classic;html=1;rounded=0;entryX=0.5;entryY=0;entryDx=0;entryDy=0;" edge="1" parent="1" target="dYqTEQ69nzzV-26pdnG4-1">
          <mxGeometry width="50" height="50" relative="1" as="geometry">
            <mxPoint x="455" y="50" as="sourcePoint" />
            <mxPoint x="510" y="30" as="targetPoint" />
            <Array as="points" />
          </mxGeometry>
        </mxCell>
        <mxCell id="dYqTEQ69nzzV-26pdnG4-3" value="&lt;b style=&quot;font-size: 15px;&quot;&gt;&lt;font style=&quot;font-size: 15px;&quot;&gt;int n&lt;/font&gt;&lt;/b&gt;&lt;div style=&quot;font-size: 15px;&quot;&gt;(passing arg to func)&lt;/div&gt;" style="text;html=1;align=center;verticalAlign=middle;whiteSpace=wrap;rounded=0;" vertex="1" parent="1">
          <mxGeometry x="480" y="110" width="150" height="30" as="geometry" />
        </mxCell>
        <mxCell id="dYqTEQ69nzzV-26pdnG4-4" value="" style="endArrow=classic;html=1;rounded=0;exitX=0.5;exitY=1;exitDx=0;exitDy=0;entryX=0.5;entryY=0;entryDx=0;entryDy=0;" edge="1" parent="1" source="dYqTEQ69nzzV-26pdnG4-1" target="dYqTEQ69nzzV-26pdnG4-5">
          <mxGeometry width="50" height="50" relative="1" as="geometry">
            <mxPoint x="454.5" y="160" as="sourcePoint" />
            <mxPoint x="455" y="220" as="targetPoint" />
            <Array as="points" />
          </mxGeometry>
        </mxCell>
        <mxCell id="dYqTEQ69nzzV-26pdnG4-5" value="" style="ellipse;whiteSpace=wrap;html=1;aspect=fixed;" vertex="1" parent="1">
          <mxGeometry x="430" y="220" width="50" height="50" as="geometry" />
        </mxCell>
        <mxCell id="dYqTEQ69nzzV-26pdnG4-6" value="" style="endArrow=classic;html=1;rounded=0;exitX=0;exitY=0.5;exitDx=0;exitDy=0;entryX=1;entryY=0.5;entryDx=0;entryDy=0;" edge="1" parent="1" source="dYqTEQ69nzzV-26pdnG4-5" target="dYqTEQ69nzzV-26pdnG4-8">
          <mxGeometry width="50" height="50" relative="1" as="geometry">
            <mxPoint x="350" y="260" as="sourcePoint" />
            <mxPoint x="260" y="245" as="targetPoint" />
          </mxGeometry>
        </mxCell>
        <mxCell id="dYqTEQ69nzzV-26pdnG4-7" value="&lt;font size=&quot;1&quot;&gt;&lt;b style=&quot;font-size: 15px;&quot;&gt;if n &amp;lt;= 1&lt;/b&gt;&lt;/font&gt;" style="text;html=1;align=center;verticalAlign=middle;whiteSpace=wrap;rounded=0;" vertex="1" parent="1">
          <mxGeometry x="330" y="220" width="60" height="30" as="geometry" />
        </mxCell>
        <mxCell id="dYqTEQ69nzzV-26pdnG4-8" value="" style="ellipse;whiteSpace=wrap;html=1;aspect=fixed;strokeWidth=4;" vertex="1" parent="1">
          <mxGeometry x="210" y="220" width="50" height="50" as="geometry" />
        </mxCell>
        <mxCell id="dYqTEQ69nzzV-26pdnG4-9" value="&lt;font style=&quot;font-size: 15px;&quot;&gt;&lt;b&gt;throw new IllegalArgumentException ( )&lt;/b&gt;&lt;/font&gt;" style="text;html=1;align=center;verticalAlign=middle;whiteSpace=wrap;rounded=0;" vertex="1" parent="1">
          <mxGeometry x="105" y="290" width="260" height="20" as="geometry" />
        </mxCell>
        <mxCell id="dYqTEQ69nzzV-26pdnG4-11" value="" style="endArrow=classic;html=1;rounded=0;entryX=0.5;entryY=0;entryDx=0;entryDy=0;exitX=0.5;exitY=1;exitDx=0;exitDy=0;" edge="1" parent="1" source="dYqTEQ69nzzV-26pdnG4-5" target="dYqTEQ69nzzV-26pdnG4-12">
          <mxGeometry width="50" height="50" relative="1" as="geometry">
            <mxPoint x="440" y="290" as="sourcePoint" />
            <mxPoint x="454.67" y="330" as="targetPoint" />
            <Array as="points" />
          </mxGeometry>
        </mxCell>
        <mxCell id="dYqTEQ69nzzV-26pdnG4-12" value="" style="ellipse;whiteSpace=wrap;html=1;aspect=fixed;" vertex="1" parent="1">
          <mxGeometry x="430" y="360" width="50" height="50" as="geometry" />
        </mxCell>
        <mxCell id="dYqTEQ69nzzV-26pdnG4-13" value="&lt;b style=&quot;forced-color-adjust: none; color: rgb(0, 0, 0); font-family: Helvetica; font-style: normal; font-variant-ligatures: normal; font-variant-caps: normal; letter-spacing: normal; orphans: 2; text-align: center; text-indent: 0px; text-transform: none; widows: 2; word-spacing: 0px; -webkit-text-stroke-width: 0px; white-space: normal; background-color: rgb(251, 251, 251); text-decoration-thickness: initial; text-decoration-style: initial; text-decoration-color: initial; font-size: 15px;&quot;&gt;if n &amp;gt; 1&lt;/b&gt;" style="text;whiteSpace=wrap;html=1;" vertex="1" parent="1">
          <mxGeometry x="460" y="300" width="90" height="40" as="geometry" />
        </mxCell>
        <mxCell id="dYqTEQ69nzzV-26pdnG4-14" value="" style="endArrow=classic;html=1;rounded=0;exitX=0;exitY=0.5;exitDx=0;exitDy=0;entryX=1;entryY=0.5;entryDx=0;entryDy=0;" edge="1" parent="1" source="dYqTEQ69nzzV-26pdnG4-12" target="dYqTEQ69nzzV-26pdnG4-16">
          <mxGeometry width="50" height="50" relative="1" as="geometry">
            <mxPoint x="425" y="384.44" as="sourcePoint" />
            <mxPoint x="260" y="384.44999999999993" as="targetPoint" />
          </mxGeometry>
        </mxCell>
        <mxCell id="dYqTEQ69nzzV-26pdnG4-72" style="edgeStyle=orthogonalEdgeStyle;rounded=0;orthogonalLoop=1;jettySize=auto;html=1;exitX=0.5;exitY=1;exitDx=0;exitDy=0;entryX=0;entryY=0.5;entryDx=0;entryDy=0;" edge="1" parent="1" source="dYqTEQ69nzzV-26pdnG4-16" target="dYqTEQ69nzzV-26pdnG4-21">
          <mxGeometry relative="1" as="geometry" />
        </mxCell>
        <mxCell id="dYqTEQ69nzzV-26pdnG4-16" value="" style="ellipse;whiteSpace=wrap;html=1;aspect=fixed;" vertex="1" parent="1">
          <mxGeometry x="210" y="360" width="50" height="50" as="geometry" />
        </mxCell>
        <mxCell id="dYqTEQ69nzzV-26pdnG4-17" value="&lt;b style=&quot;forced-color-adjust: none; color: rgb(0, 0, 0); font-family: Helvetica; font-style: normal; font-variant-ligatures: normal; font-variant-caps: normal; letter-spacing: normal; orphans: 2; text-align: center; text-indent: 0px; text-transform: none; widows: 2; word-spacing: 0px; -webkit-text-stroke-width: 0px; white-space: normal; background-color: rgb(251, 251, 251); text-decoration-thickness: initial; text-decoration-style: initial; text-decoration-color: initial; font-size: 15px;&quot;&gt;if n%2 == 0&lt;/b&gt;" style="text;whiteSpace=wrap;html=1;" vertex="1" parent="1">
          <mxGeometry x="315" y="360" width="90" height="30" as="geometry" />
        </mxCell>
        <mxCell id="dYqTEQ69nzzV-26pdnG4-19" value="&lt;b style=&quot;forced-color-adjust: none; color: rgb(0, 0, 0); font-family: Helvetica; font-style: normal; font-variant-ligatures: normal; font-variant-caps: normal; letter-spacing: normal; orphans: 2; text-align: center; text-indent: 0px; text-transform: none; widows: 2; word-spacing: 0px; -webkit-text-stroke-width: 0px; white-space: normal; background-color: rgb(251, 251, 251); text-decoration-thickness: initial; text-decoration-style: initial; text-decoration-color: initial; font-size: 15px;&quot;&gt;n --&lt;/b&gt;" style="text;whiteSpace=wrap;html=1;" vertex="1" parent="1">
          <mxGeometry x="180" y="370" width="40" height="40" as="geometry" />
        </mxCell>
        <mxCell id="dYqTEQ69nzzV-26pdnG4-20" value="" style="endArrow=classic;html=1;rounded=0;entryX=0.5;entryY=0;entryDx=0;entryDy=0;exitX=0.5;exitY=1;exitDx=0;exitDy=0;" edge="1" parent="1" source="dYqTEQ69nzzV-26pdnG4-12" target="dYqTEQ69nzzV-26pdnG4-21">
          <mxGeometry width="50" height="50" relative="1" as="geometry">
            <mxPoint x="454" y="430" as="sourcePoint" />
            <mxPoint x="454.44" y="500" as="targetPoint" />
            <Array as="points" />
          </mxGeometry>
        </mxCell>
        <mxCell id="dYqTEQ69nzzV-26pdnG4-21" value="" style="ellipse;whiteSpace=wrap;html=1;aspect=fixed;" vertex="1" parent="1">
          <mxGeometry x="430" y="500" width="50" height="50" as="geometry" />
        </mxCell>
        <mxCell id="dYqTEQ69nzzV-26pdnG4-22" value="&lt;b style=&quot;forced-color-adjust: none; color: rgb(0, 0, 0); font-family: Helvetica; font-style: normal; font-variant-ligatures: normal; font-variant-caps: normal; letter-spacing: normal; orphans: 2; text-align: center; text-indent: 0px; text-transform: none; widows: 2; word-spacing: 0px; -webkit-text-stroke-width: 0px; white-space: normal; background-color: rgb(251, 251, 251); text-decoration-thickness: initial; text-decoration-style: initial; text-decoration-color: initial; font-size: 15px;&quot;&gt;if n%2 =! 0&lt;/b&gt;" style="text;whiteSpace=wrap;html=1;" vertex="1" parent="1">
          <mxGeometry x="460" y="430" width="90" height="40" as="geometry" />
        </mxCell>
        <mxCell id="dYqTEQ69nzzV-26pdnG4-23" value="&lt;b style=&quot;forced-color-adjust: none; color: rgb(0, 0, 0); font-family: Helvetica; font-style: normal; font-variant-ligatures: normal; font-variant-caps: normal; letter-spacing: normal; orphans: 2; text-align: center; text-indent: 0px; text-transform: none; widows: 2; word-spacing: 0px; -webkit-text-stroke-width: 0px; white-space: normal; background-color: rgb(251, 251, 251); text-decoration-thickness: initial; text-decoration-style: initial; text-decoration-color: initial; font-size: 15px;&quot;&gt;int i = n&lt;/b&gt;" style="text;whiteSpace=wrap;html=1;" vertex="1" parent="1">
          <mxGeometry x="490" y="505" width="60" height="40" as="geometry" />
        </mxCell>
        <mxCell id="dYqTEQ69nzzV-26pdnG4-24" value="" style="endArrow=classic;html=1;rounded=0;exitX=0;exitY=0.5;exitDx=0;exitDy=0;entryX=1;entryY=0.5;entryDx=0;entryDy=0;" edge="1" parent="1" source="dYqTEQ69nzzV-26pdnG4-41" target="dYqTEQ69nzzV-26pdnG4-25">
          <mxGeometry width="50" height="50" relative="1" as="geometry">
            <mxPoint x="430" y="524.5699999999999" as="sourcePoint" />
            <mxPoint x="260" y="524.5699999999999" as="targetPoint" />
          </mxGeometry>
        </mxCell>
        <mxCell id="dYqTEQ69nzzV-26pdnG4-25" value="" style="ellipse;whiteSpace=wrap;html=1;aspect=fixed;strokeWidth=4;" vertex="1" parent="1">
          <mxGeometry x="210" y="650" width="50" height="50" as="geometry" />
        </mxCell>
        <mxCell id="dYqTEQ69nzzV-26pdnG4-26" value="&lt;b style=&quot;forced-color-adjust: none; color: rgb(0, 0, 0); font-family: Helvetica; font-style: normal; font-variant-ligatures: normal; font-variant-caps: normal; letter-spacing: normal; orphans: 2; text-align: center; text-indent: 0px; text-transform: none; widows: 2; word-spacing: 0px; -webkit-text-stroke-width: 0px; white-space: normal; background-color: rgb(251, 251, 251); text-decoration-thickness: initial; text-decoration-style: initial; text-decoration-color: initial; font-size: 15px;&quot;&gt;i &amp;lt;= 1&lt;/b&gt;" style="text;whiteSpace=wrap;html=1;" vertex="1" parent="1">
          <mxGeometry x="330" y="650" width="90" height="30" as="geometry" />
        </mxCell>
        <mxCell id="dYqTEQ69nzzV-26pdnG4-27" value="&lt;b style=&quot;forced-color-adjust: none; color: rgb(0, 0, 0); font-family: Helvetica; font-style: normal; font-variant-ligatures: normal; font-variant-caps: normal; letter-spacing: normal; orphans: 2; text-align: center; text-indent: 0px; text-transform: none; widows: 2; word-spacing: 0px; -webkit-text-stroke-width: 0px; white-space: normal; background-color: rgb(251, 251, 251); text-decoration-thickness: initial; text-decoration-style: initial; text-decoration-color: initial; font-size: 15px;&quot;&gt;return 1&lt;/b&gt;" style="text;whiteSpace=wrap;html=1;" vertex="1" parent="1">
          <mxGeometry x="200" y="700" width="90" height="30" as="geometry" />
        </mxCell>
        <mxCell id="dYqTEQ69nzzV-26pdnG4-28" value="" style="endArrow=classic;html=1;rounded=0;exitX=0.5;exitY=1;exitDx=0;exitDy=0;entryX=0.5;entryY=0;entryDx=0;entryDy=0;" edge="1" parent="1" source="dYqTEQ69nzzV-26pdnG4-21" target="dYqTEQ69nzzV-26pdnG4-41">
          <mxGeometry width="50" height="50" relative="1" as="geometry">
            <mxPoint x="454.57" y="550" as="sourcePoint" />
            <mxPoint x="455" y="680" as="targetPoint" />
            <Array as="points" />
          </mxGeometry>
        </mxCell>
        <mxCell id="dYqTEQ69nzzV-26pdnG4-29" value="" style="ellipse;whiteSpace=wrap;html=1;aspect=fixed;" vertex="1" parent="1">
          <mxGeometry x="430" y="980" width="50" height="50" as="geometry" />
        </mxCell>
        <mxCell id="dYqTEQ69nzzV-26pdnG4-30" value="&lt;b style=&quot;forced-color-adjust: none; color: rgb(0, 0, 0); font-family: Helvetica; font-style: normal; font-variant-ligatures: normal; font-variant-caps: normal; letter-spacing: normal; orphans: 2; text-align: center; text-indent: 0px; text-transform: none; widows: 2; word-spacing: 0px; -webkit-text-stroke-width: 0px; white-space: normal; background-color: rgb(251, 251, 251); text-decoration-thickness: initial; text-decoration-style: initial; text-decoration-color: initial; font-size: 15px;&quot;&gt;i &amp;gt; 1&lt;/b&gt;" style="text;whiteSpace=wrap;html=1;" vertex="1" parent="1">
          <mxGeometry x="460" y="740" width="90" height="30" as="geometry" />
        </mxCell>
        <mxCell id="dYqTEQ69nzzV-26pdnG4-31" value="&lt;div style=&quot;text-align: center;&quot;&gt;&lt;span style=&quot;background-color: initial; font-size: 15px;&quot;&gt;&lt;b&gt;boolean f = true&lt;/b&gt;&lt;/span&gt;&lt;/div&gt;&lt;div style=&quot;text-align: center;&quot;&gt;&lt;span style=&quot;font-size: 15px;&quot;&gt;&lt;b&gt;int j = 2&lt;/b&gt;&lt;/span&gt;&lt;/div&gt;" style="text;whiteSpace=wrap;html=1;" vertex="1" parent="1">
          <mxGeometry x="315" y="810" width="140" height="30" as="geometry" />
        </mxCell>
        <mxCell id="dYqTEQ69nzzV-26pdnG4-32" value="" style="endArrow=classic;html=1;rounded=0;exitX=1;exitY=0.5;exitDx=0;exitDy=0;entryX=0;entryY=0.5;entryDx=0;entryDy=0;" edge="1" parent="1" source="dYqTEQ69nzzV-26pdnG4-29" target="dYqTEQ69nzzV-26pdnG4-33">
          <mxGeometry width="50" height="50" relative="1" as="geometry">
            <mxPoint x="430" y="1004.66" as="sourcePoint" />
            <mxPoint x="620" y="1005" as="targetPoint" />
          </mxGeometry>
        </mxCell>
        <mxCell id="dYqTEQ69nzzV-26pdnG4-33" value="" style="ellipse;whiteSpace=wrap;html=1;aspect=fixed;" vertex="1" parent="1">
          <mxGeometry x="640" y="980" width="50" height="50" as="geometry" />
        </mxCell>
        <mxCell id="dYqTEQ69nzzV-26pdnG4-34" value="&lt;b style=&quot;forced-color-adjust: none; color: rgb(0, 0, 0); font-family: Helvetica; font-style: normal; font-variant-ligatures: normal; font-variant-caps: normal; letter-spacing: normal; orphans: 2; text-align: center; text-indent: 0px; text-transform: none; widows: 2; word-spacing: 0px; -webkit-text-stroke-width: 0px; white-space: normal; background-color: rgb(251, 251, 251); text-decoration-thickness: initial; text-decoration-style: initial; text-decoration-color: initial; font-size: 15px;&quot;&gt;j &amp;gt;= i/2&lt;/b&gt;" style="text;whiteSpace=wrap;html=1;" vertex="1" parent="1">
          <mxGeometry x="540" y="980" width="90" height="40" as="geometry" />
        </mxCell>
        <mxCell id="dYqTEQ69nzzV-26pdnG4-35" value="" style="endArrow=classic;html=1;rounded=0;exitX=1;exitY=0.5;exitDx=0;exitDy=0;" edge="1" parent="1" source="dYqTEQ69nzzV-26pdnG4-33">
          <mxGeometry width="50" height="50" relative="1" as="geometry">
            <mxPoint x="210" y="1004.44" as="sourcePoint" />
            <mxPoint x="860" y="1005" as="targetPoint" />
          </mxGeometry>
        </mxCell>
        <mxCell id="dYqTEQ69nzzV-26pdnG4-36" value="" style="ellipse;whiteSpace=wrap;html=1;aspect=fixed;strokeWidth=4;" vertex="1" parent="1">
          <mxGeometry x="860" y="980" width="50" height="50" as="geometry" />
        </mxCell>
        <mxCell id="dYqTEQ69nzzV-26pdnG4-37" value="&lt;b style=&quot;forced-color-adjust: none; color: rgb(0, 0, 0); font-family: Helvetica; font-style: normal; font-variant-ligatures: normal; font-variant-caps: normal; letter-spacing: normal; orphans: 2; text-align: center; text-indent: 0px; text-transform: none; widows: 2; word-spacing: 0px; -webkit-text-stroke-width: 0px; white-space: normal; background-color: rgb(251, 251, 251); text-decoration-thickness: initial; text-decoration-style: initial; text-decoration-color: initial; font-size: 15px;&quot;&gt;return i&lt;/b&gt;" style="text;whiteSpace=wrap;html=1;" vertex="1" parent="1">
          <mxGeometry x="860" y="1030" width="90" height="30" as="geometry" />
        </mxCell>
        <mxCell id="dYqTEQ69nzzV-26pdnG4-38" value="&lt;b style=&quot;forced-color-adjust: none; color: rgb(0, 0, 0); font-family: Helvetica; font-style: normal; font-variant-ligatures: normal; font-variant-caps: normal; letter-spacing: normal; orphans: 2; text-align: center; text-indent: 0px; text-transform: none; widows: 2; word-spacing: 0px; -webkit-text-stroke-width: 0px; white-space: normal; background-color: rgb(251, 251, 251); text-decoration-thickness: initial; text-decoration-style: initial; text-decoration-color: initial; font-size: 15px;&quot;&gt;f == true&lt;/b&gt;" style="text;whiteSpace=wrap;html=1;" vertex="1" parent="1">
          <mxGeometry x="740" y="980" width="90" height="40" as="geometry" />
        </mxCell>
        <mxCell id="dYqTEQ69nzzV-26pdnG4-40" value="" style="endArrow=classic;html=1;rounded=0;exitX=0.5;exitY=1;exitDx=0;exitDy=0;" edge="1" parent="1">
          <mxGeometry width="50" height="50" relative="1" as="geometry">
            <mxPoint x="454.38" y="1030" as="sourcePoint" />
            <mxPoint x="454" y="1130" as="targetPoint" />
            <Array as="points" />
          </mxGeometry>
        </mxCell>
        <mxCell id="dYqTEQ69nzzV-26pdnG4-56" style="edgeStyle=orthogonalEdgeStyle;rounded=0;orthogonalLoop=1;jettySize=auto;html=1;exitX=0.5;exitY=1;exitDx=0;exitDy=0;entryX=0.5;entryY=0;entryDx=0;entryDy=0;" edge="1" parent="1" source="dYqTEQ69nzzV-26pdnG4-41" target="dYqTEQ69nzzV-26pdnG4-55">
          <mxGeometry relative="1" as="geometry" />
        </mxCell>
        <mxCell id="dYqTEQ69nzzV-26pdnG4-41" value="" style="ellipse;whiteSpace=wrap;html=1;aspect=fixed;" vertex="1" parent="1">
          <mxGeometry x="430" y="650" width="50" height="50" as="geometry" />
        </mxCell>
        <mxCell id="dYqTEQ69nzzV-26pdnG4-43" value="" style="endArrow=classic;html=1;rounded=0;exitX=0.5;exitY=0;exitDx=0;exitDy=0;entryX=0.5;entryY=1;entryDx=0;entryDy=0;" edge="1" parent="1" source="dYqTEQ69nzzV-26pdnG4-33" target="dYqTEQ69nzzV-26pdnG4-44">
          <mxGeometry width="50" height="50" relative="1" as="geometry">
            <mxPoint x="465" y="710" as="sourcePoint" />
            <mxPoint x="665" y="700" as="targetPoint" />
          </mxGeometry>
        </mxCell>
        <mxCell id="dYqTEQ69nzzV-26pdnG4-48" style="edgeStyle=orthogonalEdgeStyle;rounded=0;orthogonalLoop=1;jettySize=auto;html=1;exitX=0;exitY=0.5;exitDx=0;exitDy=0;entryX=1;entryY=0.5;entryDx=0;entryDy=0;" edge="1" parent="1" source="dYqTEQ69nzzV-26pdnG4-44" target="dYqTEQ69nzzV-26pdnG4-41">
          <mxGeometry relative="1" as="geometry" />
        </mxCell>
        <mxCell id="dYqTEQ69nzzV-26pdnG4-44" value="" style="ellipse;whiteSpace=wrap;html=1;aspect=fixed;" vertex="1" parent="1">
          <mxGeometry x="640" y="650" width="50" height="50" as="geometry" />
        </mxCell>
        <mxCell id="dYqTEQ69nzzV-26pdnG4-45" value="&lt;b style=&quot;forced-color-adjust: none; color: rgb(0, 0, 0); font-family: Helvetica; font-style: normal; font-variant-ligatures: normal; font-variant-caps: normal; letter-spacing: normal; orphans: 2; text-align: center; text-indent: 0px; text-transform: none; widows: 2; word-spacing: 0px; -webkit-text-stroke-width: 0px; white-space: normal; background-color: rgb(251, 251, 251); text-decoration-thickness: initial; text-decoration-style: initial; text-decoration-color: initial; font-size: 15px;&quot;&gt;f != true&lt;/b&gt;" style="text;whiteSpace=wrap;html=1;" vertex="1" parent="1">
          <mxGeometry x="670" y="820" width="90" height="40" as="geometry" />
        </mxCell>
        <mxCell id="dYqTEQ69nzzV-26pdnG4-47" value="&lt;b style=&quot;forced-color-adjust: none; color: rgb(0, 0, 0); font-family: Helvetica; font-style: normal; font-variant-ligatures: normal; font-variant-caps: normal; letter-spacing: normal; orphans: 2; text-align: center; text-indent: 0px; text-transform: none; widows: 2; word-spacing: 0px; -webkit-text-stroke-width: 0px; white-space: normal; background-color: rgb(251, 251, 251); text-decoration-thickness: initial; text-decoration-style: initial; text-decoration-color: initial; font-size: 15px;&quot;&gt;i -= 2&lt;/b&gt;" style="text;whiteSpace=wrap;html=1;" vertex="1" parent="1">
          <mxGeometry x="650" y="620" width="50" height="40" as="geometry" />
        </mxCell>
        <mxCell id="dYqTEQ69nzzV-26pdnG4-49" value="&lt;b style=&quot;forced-color-adjust: none; color: rgb(0, 0, 0); font-family: Helvetica; font-style: normal; font-variant-ligatures: normal; font-variant-caps: normal; letter-spacing: normal; orphans: 2; text-align: center; text-indent: 0px; text-transform: none; widows: 2; word-spacing: 0px; -webkit-text-stroke-width: 0px; white-space: normal; background-color: rgb(251, 251, 251); text-decoration-thickness: initial; text-decoration-style: initial; text-decoration-color: initial; font-size: 15px;&quot;&gt;j &amp;lt; i/2&lt;/b&gt;" style="text;whiteSpace=wrap;html=1;" vertex="1" parent="1">
          <mxGeometry x="460" y="1060" width="90" height="40" as="geometry" />
        </mxCell>
        <mxCell id="dYqTEQ69nzzV-26pdnG4-63" style="edgeStyle=orthogonalEdgeStyle;rounded=0;orthogonalLoop=1;jettySize=auto;html=1;exitX=1;exitY=0.5;exitDx=0;exitDy=0;entryX=0;entryY=0.5;entryDx=0;entryDy=0;" edge="1" parent="1" source="dYqTEQ69nzzV-26pdnG4-50" target="dYqTEQ69nzzV-26pdnG4-59">
          <mxGeometry relative="1" as="geometry" />
        </mxCell>
        <mxCell id="dYqTEQ69nzzV-26pdnG4-50" value="" style="ellipse;whiteSpace=wrap;html=1;aspect=fixed;" vertex="1" parent="1">
          <mxGeometry x="430" y="1130" width="50" height="50" as="geometry" />
        </mxCell>
        <mxCell id="dYqTEQ69nzzV-26pdnG4-51" value="" style="endArrow=classic;html=1;rounded=0;exitX=0;exitY=0.5;exitDx=0;exitDy=0;entryX=1;entryY=0.5;entryDx=0;entryDy=0;" edge="1" parent="1" source="dYqTEQ69nzzV-26pdnG4-50" target="dYqTEQ69nzzV-26pdnG4-52">
          <mxGeometry width="50" height="50" relative="1" as="geometry">
            <mxPoint x="454.79" y="1180" as="sourcePoint" />
            <mxPoint x="454.41" y="1280" as="targetPoint" />
            <Array as="points" />
          </mxGeometry>
        </mxCell>
        <mxCell id="dYqTEQ69nzzV-26pdnG4-58" style="edgeStyle=orthogonalEdgeStyle;rounded=0;orthogonalLoop=1;jettySize=auto;html=1;exitX=0.5;exitY=0;exitDx=0;exitDy=0;entryX=0;entryY=0.5;entryDx=0;entryDy=0;" edge="1" parent="1" source="dYqTEQ69nzzV-26pdnG4-52" target="dYqTEQ69nzzV-26pdnG4-29">
          <mxGeometry relative="1" as="geometry" />
        </mxCell>
        <mxCell id="dYqTEQ69nzzV-26pdnG4-52" value="" style="ellipse;whiteSpace=wrap;html=1;aspect=fixed;" vertex="1" parent="1">
          <mxGeometry x="240" y="1130" width="50" height="50" as="geometry" />
        </mxCell>
        <mxCell id="dYqTEQ69nzzV-26pdnG4-53" value="&lt;b style=&quot;forced-color-adjust: none; color: rgb(0, 0, 0); font-family: Helvetica; font-style: normal; font-variant-ligatures: normal; font-variant-caps: normal; letter-spacing: normal; orphans: 2; text-align: center; text-indent: 0px; text-transform: none; widows: 2; word-spacing: 0px; -webkit-text-stroke-width: 0px; white-space: normal; background-color: rgb(251, 251, 251); text-decoration-thickness: initial; text-decoration-style: initial; text-decoration-color: initial; font-size: 15px;&quot;&gt;i % j != 0&lt;/b&gt;" style="text;whiteSpace=wrap;html=1;" vertex="1" parent="1">
          <mxGeometry x="330" y="1130" width="90" height="40" as="geometry" />
        </mxCell>
        <mxCell id="dYqTEQ69nzzV-26pdnG4-54" value="&lt;b style=&quot;forced-color-adjust: none; color: rgb(0, 0, 0); font-family: Helvetica; font-style: normal; font-variant-ligatures: normal; font-variant-caps: normal; letter-spacing: normal; orphans: 2; text-align: center; text-indent: 0px; text-transform: none; widows: 2; word-spacing: 0px; -webkit-text-stroke-width: 0px; white-space: normal; background-color: rgb(251, 251, 251); text-decoration-thickness: initial; text-decoration-style: initial; text-decoration-color: initial; font-size: 15px;&quot;&gt;j ++&lt;/b&gt;" style="text;whiteSpace=wrap;html=1;" vertex="1" parent="1">
          <mxGeometry x="250" y="1180" width="90" height="40" as="geometry" />
        </mxCell>
        <mxCell id="dYqTEQ69nzzV-26pdnG4-57" style="edgeStyle=orthogonalEdgeStyle;rounded=0;orthogonalLoop=1;jettySize=auto;html=1;exitX=0.5;exitY=1;exitDx=0;exitDy=0;entryX=0.5;entryY=0;entryDx=0;entryDy=0;" edge="1" parent="1" source="dYqTEQ69nzzV-26pdnG4-55" target="dYqTEQ69nzzV-26pdnG4-29">
          <mxGeometry relative="1" as="geometry" />
        </mxCell>
        <mxCell id="dYqTEQ69nzzV-26pdnG4-55" value="" style="ellipse;whiteSpace=wrap;html=1;aspect=fixed;" vertex="1" parent="1">
          <mxGeometry x="430" y="820" width="50" height="50" as="geometry" />
        </mxCell>
        <mxCell id="dYqTEQ69nzzV-26pdnG4-65" style="edgeStyle=orthogonalEdgeStyle;rounded=0;orthogonalLoop=1;jettySize=auto;html=1;exitX=1;exitY=0.5;exitDx=0;exitDy=0;entryX=1;entryY=0.5;entryDx=0;entryDy=0;" edge="1" parent="1" source="dYqTEQ69nzzV-26pdnG4-59" target="dYqTEQ69nzzV-26pdnG4-44">
          <mxGeometry relative="1" as="geometry">
            <mxPoint x="770" y="1155" as="sourcePoint" />
            <mxPoint x="770" y="675" as="targetPoint" />
            <Array as="points">
              <mxPoint x="950" y="1155" />
              <mxPoint x="950" y="675" />
            </Array>
          </mxGeometry>
        </mxCell>
        <mxCell id="dYqTEQ69nzzV-26pdnG4-59" value="" style="ellipse;whiteSpace=wrap;html=1;aspect=fixed;" vertex="1" parent="1">
          <mxGeometry x="640" y="1130" width="50" height="50" as="geometry" />
        </mxCell>
        <mxCell id="dYqTEQ69nzzV-26pdnG4-61" value="&lt;b style=&quot;forced-color-adjust: none; color: rgb(0, 0, 0); font-family: Helvetica; font-style: normal; font-variant-ligatures: normal; font-variant-caps: normal; letter-spacing: normal; orphans: 2; text-align: center; text-indent: 0px; text-transform: none; widows: 2; word-spacing: 0px; -webkit-text-stroke-width: 0px; white-space: normal; background-color: rgb(251, 251, 251); text-decoration-thickness: initial; text-decoration-style: initial; text-decoration-color: initial; font-size: 15px;&quot;&gt;i % j == 0&lt;/b&gt;" style="text;whiteSpace=wrap;html=1;" vertex="1" parent="1">
          <mxGeometry x="520" y="1130" width="90" height="40" as="geometry" />
        </mxCell>
        <mxCell id="dYqTEQ69nzzV-26pdnG4-66" value="&lt;b style=&quot;forced-color-adjust: none; color: rgb(0, 0, 0); font-family: Helvetica; font-style: normal; font-variant-ligatures: normal; font-variant-caps: normal; letter-spacing: normal; orphans: 2; text-align: center; text-indent: 0px; text-transform: none; widows: 2; word-spacing: 0px; -webkit-text-stroke-width: 0px; white-space: normal; background-color: rgb(251, 251, 251); text-decoration-thickness: initial; text-decoration-style: initial; text-decoration-color: initial; font-size: 15px;&quot;&gt;f = false&lt;/b&gt;" style="text;whiteSpace=wrap;html=1;" vertex="1" parent="1">
          <mxGeometry x="640" y="1180" width="90" height="40" as="geometry" />
        </mxCell>
        <mxCell id="dYqTEQ69nzzV-26pdnG4-67" value="&lt;b style=&quot;forced-color-adjust: none; color: rgb(0, 0, 0); font-family: Helvetica; font-style: normal; font-variant-ligatures: normal; font-variant-caps: normal; letter-spacing: normal; orphans: 2; text-align: center; text-indent: 0px; text-transform: none; widows: 2; word-spacing: 0px; -webkit-text-stroke-width: 0px; white-space: normal; background-color: rgb(251, 251, 251); text-decoration-thickness: initial; text-decoration-style: initial; text-decoration-color: initial; font-size: 15px;&quot;&gt;break&lt;/b&gt;" style="text;whiteSpace=wrap;html=1;" vertex="1" parent="1">
          <mxGeometry x="890" y="650" width="90" height="40" as="geometry" />
        </mxCell>
        <mxCell id="dYqTEQ69nzzV-26pdnG4-68" value="&lt;b&gt;&lt;font style=&quot;font-size: 16px;&quot;&gt;1&lt;/font&gt;&lt;/b&gt;" style="text;html=1;align=center;verticalAlign=middle;whiteSpace=wrap;rounded=0;" vertex="1" parent="1">
          <mxGeometry x="425" y="120" width="60" height="30" as="geometry" />
        </mxCell>
        <mxCell id="dYqTEQ69nzzV-26pdnG4-70" value="&lt;b&gt;&lt;font style=&quot;font-size: 16px;&quot;&gt;2&lt;/font&gt;&lt;/b&gt;" style="text;html=1;align=center;verticalAlign=middle;whiteSpace=wrap;rounded=0;" vertex="1" parent="1">
          <mxGeometry x="425" y="230" width="60" height="30" as="geometry" />
        </mxCell>
        <mxCell id="dYqTEQ69nzzV-26pdnG4-71" value="&lt;b&gt;&lt;font style=&quot;font-size: 16px;&quot;&gt;3&lt;/font&gt;&lt;/b&gt;" style="text;html=1;align=center;verticalAlign=middle;whiteSpace=wrap;rounded=0;" vertex="1" parent="1">
          <mxGeometry x="425" y="370" width="60" height="30" as="geometry" />
        </mxCell>
        <mxCell id="dYqTEQ69nzzV-26pdnG4-73" value="&lt;b&gt;&lt;font style=&quot;font-size: 16px;&quot;&gt;4&lt;/font&gt;&lt;/b&gt;" style="text;html=1;align=center;verticalAlign=middle;whiteSpace=wrap;rounded=0;" vertex="1" parent="1">
          <mxGeometry x="205" y="370" width="60" height="30" as="geometry" />
        </mxCell>
        <mxCell id="dYqTEQ69nzzV-26pdnG4-74" value="&lt;b&gt;&lt;font style=&quot;font-size: 16px;&quot;&gt;5&lt;/font&gt;&lt;/b&gt;" style="text;html=1;align=center;verticalAlign=middle;whiteSpace=wrap;rounded=0;" vertex="1" parent="1">
          <mxGeometry x="425" y="510" width="60" height="30" as="geometry" />
        </mxCell>
        <mxCell id="dYqTEQ69nzzV-26pdnG4-75" value="&lt;b&gt;&lt;font style=&quot;font-size: 16px;&quot;&gt;6&lt;/font&gt;&lt;/b&gt;" style="text;html=1;align=center;verticalAlign=middle;whiteSpace=wrap;rounded=0;" vertex="1" parent="1">
          <mxGeometry x="425" y="660" width="60" height="30" as="geometry" />
        </mxCell>
        <mxCell id="dYqTEQ69nzzV-26pdnG4-76" value="&lt;b&gt;&lt;font style=&quot;font-size: 16px;&quot;&gt;7&lt;/font&gt;&lt;/b&gt;" style="text;html=1;align=center;verticalAlign=middle;whiteSpace=wrap;rounded=0;" vertex="1" parent="1">
          <mxGeometry x="425" y="830" width="60" height="30" as="geometry" />
        </mxCell>
        <mxCell id="dYqTEQ69nzzV-26pdnG4-77" value="&lt;b&gt;&lt;font style=&quot;font-size: 16px;&quot;&gt;8&lt;/font&gt;&lt;/b&gt;" style="text;html=1;align=center;verticalAlign=middle;whiteSpace=wrap;rounded=0;" vertex="1" parent="1">
          <mxGeometry x="425" y="990" width="60" height="30" as="geometry" />
        </mxCell>
        <mxCell id="dYqTEQ69nzzV-26pdnG4-78" value="&lt;b&gt;&lt;font style=&quot;font-size: 16px;&quot;&gt;9&lt;/font&gt;&lt;/b&gt;" style="text;html=1;align=center;verticalAlign=middle;whiteSpace=wrap;rounded=0;" vertex="1" parent="1">
          <mxGeometry x="425" y="1140" width="60" height="30" as="geometry" />
        </mxCell>
        <mxCell id="dYqTEQ69nzzV-26pdnG4-79" value="&lt;b&gt;&lt;font style=&quot;font-size: 16px;&quot;&gt;10&lt;/font&gt;&lt;/b&gt;" style="text;html=1;align=center;verticalAlign=middle;whiteSpace=wrap;rounded=0;" vertex="1" parent="1">
          <mxGeometry x="635" y="1140" width="60" height="30" as="geometry" />
        </mxCell>
        <mxCell id="dYqTEQ69nzzV-26pdnG4-80" value="&lt;b&gt;&lt;font style=&quot;font-size: 16px;&quot;&gt;11&lt;/font&gt;&lt;/b&gt;" style="text;html=1;align=center;verticalAlign=middle;whiteSpace=wrap;rounded=0;" vertex="1" parent="1">
          <mxGeometry x="635" y="660" width="60" height="30" as="geometry" />
        </mxCell>
        <mxCell id="dYqTEQ69nzzV-26pdnG4-81" value="&lt;b&gt;&lt;font style=&quot;font-size: 16px;&quot;&gt;12&lt;/font&gt;&lt;/b&gt;" style="text;html=1;align=center;verticalAlign=middle;whiteSpace=wrap;rounded=0;" vertex="1" parent="1">
          <mxGeometry x="635" y="990" width="60" height="30" as="geometry" />
        </mxCell>
        <mxCell id="dYqTEQ69nzzV-26pdnG4-82" value="&lt;b&gt;&lt;font style=&quot;font-size: 16px;&quot;&gt;13&lt;/font&gt;&lt;/b&gt;" style="text;html=1;align=center;verticalAlign=middle;whiteSpace=wrap;rounded=0;" vertex="1" parent="1">
          <mxGeometry x="235" y="1140" width="60" height="30" as="geometry" />
        </mxCell>
        <mxCell id="dYqTEQ69nzzV-26pdnG4-83" value="&lt;b&gt;&lt;font style=&quot;font-size: 16px;&quot;&gt;14&lt;/font&gt;&lt;/b&gt;" style="text;html=1;align=center;verticalAlign=middle;whiteSpace=wrap;rounded=0;" vertex="1" parent="1">
          <mxGeometry x="205" y="230" width="60" height="30" as="geometry" />
        </mxCell>
        <mxCell id="dYqTEQ69nzzV-26pdnG4-84" value="&lt;b&gt;&lt;font style=&quot;font-size: 16px;&quot;&gt;15&lt;/font&gt;&lt;/b&gt;" style="text;html=1;align=center;verticalAlign=middle;whiteSpace=wrap;rounded=0;" vertex="1" parent="1">
          <mxGeometry x="205" y="660" width="60" height="30" as="geometry" />
        </mxCell>
        <mxCell id="dYqTEQ69nzzV-26pdnG4-85" value="&lt;b&gt;&lt;font style=&quot;font-size: 16px;&quot;&gt;16&lt;/font&gt;&lt;/b&gt;" style="text;html=1;align=center;verticalAlign=middle;whiteSpace=wrap;rounded=0;" vertex="1" parent="1">
          <mxGeometry x="855" y="990" width="60" height="30" as="geometry" />
        </mxCell>
        <mxCell id="dYqTEQ69nzzV-26pdnG4-86" value="" style="ellipse;whiteSpace=wrap;html=1;aspect=fixed;" vertex="1" parent="1">
          <mxGeometry x="1520" y="115" width="50" height="50" as="geometry" />
        </mxCell>
        <mxCell id="dYqTEQ69nzzV-26pdnG4-87" value="" style="endArrow=classic;html=1;rounded=0;entryX=0.5;entryY=0;entryDx=0;entryDy=0;" edge="1" parent="1" target="dYqTEQ69nzzV-26pdnG4-86">
          <mxGeometry width="50" height="50" relative="1" as="geometry">
            <mxPoint x="1545" y="55" as="sourcePoint" />
            <mxPoint x="1600" y="35" as="targetPoint" />
            <Array as="points" />
          </mxGeometry>
        </mxCell>
        <mxCell id="dYqTEQ69nzzV-26pdnG4-88" value="&lt;div style=&quot;font-size: 15px;&quot;&gt;&lt;b&gt;def(1) = {n}&lt;/b&gt;&lt;/div&gt;" style="text;html=1;align=center;verticalAlign=middle;whiteSpace=wrap;rounded=0;" vertex="1" parent="1">
          <mxGeometry x="1545" y="120" width="150" height="30" as="geometry" />
        </mxCell>
        <mxCell id="dYqTEQ69nzzV-26pdnG4-89" value="" style="endArrow=classic;html=1;rounded=0;exitX=0.5;exitY=1;exitDx=0;exitDy=0;entryX=0.5;entryY=0;entryDx=0;entryDy=0;" edge="1" parent="1" source="dYqTEQ69nzzV-26pdnG4-86" target="dYqTEQ69nzzV-26pdnG4-90">
          <mxGeometry width="50" height="50" relative="1" as="geometry">
            <mxPoint x="1544.5" y="165" as="sourcePoint" />
            <mxPoint x="1545" y="225" as="targetPoint" />
            <Array as="points" />
          </mxGeometry>
        </mxCell>
        <mxCell id="dYqTEQ69nzzV-26pdnG4-90" value="" style="ellipse;whiteSpace=wrap;html=1;aspect=fixed;" vertex="1" parent="1">
          <mxGeometry x="1520" y="225" width="50" height="50" as="geometry" />
        </mxCell>
        <mxCell id="dYqTEQ69nzzV-26pdnG4-91" value="" style="endArrow=classic;html=1;rounded=0;exitX=0;exitY=0.5;exitDx=0;exitDy=0;entryX=1;entryY=0.5;entryDx=0;entryDy=0;" edge="1" parent="1" source="dYqTEQ69nzzV-26pdnG4-90" target="dYqTEQ69nzzV-26pdnG4-93">
          <mxGeometry width="50" height="50" relative="1" as="geometry">
            <mxPoint x="1440" y="265" as="sourcePoint" />
            <mxPoint x="1350" y="250" as="targetPoint" />
          </mxGeometry>
        </mxCell>
        <mxCell id="dYqTEQ69nzzV-26pdnG4-92" value="&lt;font size=&quot;1&quot;&gt;&lt;b style=&quot;font-size: 15px;&quot;&gt;use(2, 14) = {n}&lt;/b&gt;&lt;/font&gt;" style="text;html=1;align=center;verticalAlign=middle;whiteSpace=wrap;rounded=0;" vertex="1" parent="1">
          <mxGeometry x="1380" y="220" width="110" height="30" as="geometry" />
        </mxCell>
        <mxCell id="dYqTEQ69nzzV-26pdnG4-93" value="" style="ellipse;whiteSpace=wrap;html=1;aspect=fixed;strokeWidth=4;" vertex="1" parent="1">
          <mxGeometry x="1300" y="225" width="50" height="50" as="geometry" />
        </mxCell>
        <mxCell id="dYqTEQ69nzzV-26pdnG4-95" value="" style="endArrow=classic;html=1;rounded=0;entryX=0.5;entryY=0;entryDx=0;entryDy=0;exitX=0.5;exitY=1;exitDx=0;exitDy=0;" edge="1" parent="1" source="dYqTEQ69nzzV-26pdnG4-90" target="dYqTEQ69nzzV-26pdnG4-96">
          <mxGeometry width="50" height="50" relative="1" as="geometry">
            <mxPoint x="1530" y="295" as="sourcePoint" />
            <mxPoint x="1544.67" y="335" as="targetPoint" />
            <Array as="points" />
          </mxGeometry>
        </mxCell>
        <mxCell id="dYqTEQ69nzzV-26pdnG4-96" value="" style="ellipse;whiteSpace=wrap;html=1;aspect=fixed;" vertex="1" parent="1">
          <mxGeometry x="1520" y="365" width="50" height="50" as="geometry" />
        </mxCell>
        <mxCell id="dYqTEQ69nzzV-26pdnG4-97" value="&lt;b style=&quot;forced-color-adjust: none; color: rgb(0, 0, 0); font-family: Helvetica; font-style: normal; font-variant-ligatures: normal; font-variant-caps: normal; letter-spacing: normal; orphans: 2; text-align: center; text-indent: 0px; text-transform: none; widows: 2; word-spacing: 0px; -webkit-text-stroke-width: 0px; white-space: normal; background-color: rgb(251, 251, 251); text-decoration-thickness: initial; text-decoration-style: initial; text-decoration-color: initial; font-size: 15px;&quot;&gt;use(2, 3) = {n}&lt;/b&gt;" style="text;whiteSpace=wrap;html=1;" vertex="1" parent="1">
          <mxGeometry x="1550" y="305" width="120" height="40" as="geometry" />
        </mxCell>
        <mxCell id="dYqTEQ69nzzV-26pdnG4-98" value="" style="endArrow=classic;html=1;rounded=0;exitX=0;exitY=0.5;exitDx=0;exitDy=0;entryX=1;entryY=0.5;entryDx=0;entryDy=0;" edge="1" parent="1" source="dYqTEQ69nzzV-26pdnG4-96" target="dYqTEQ69nzzV-26pdnG4-100">
          <mxGeometry width="50" height="50" relative="1" as="geometry">
            <mxPoint x="1515" y="389.44" as="sourcePoint" />
            <mxPoint x="1350" y="389.44999999999993" as="targetPoint" />
          </mxGeometry>
        </mxCell>
        <mxCell id="dYqTEQ69nzzV-26pdnG4-99" style="edgeStyle=orthogonalEdgeStyle;rounded=0;orthogonalLoop=1;jettySize=auto;html=1;exitX=0.5;exitY=1;exitDx=0;exitDy=0;entryX=0;entryY=0.5;entryDx=0;entryDy=0;" edge="1" parent="1" source="dYqTEQ69nzzV-26pdnG4-100" target="dYqTEQ69nzzV-26pdnG4-104">
          <mxGeometry relative="1" as="geometry" />
        </mxCell>
        <mxCell id="dYqTEQ69nzzV-26pdnG4-100" value="" style="ellipse;whiteSpace=wrap;html=1;aspect=fixed;" vertex="1" parent="1">
          <mxGeometry x="1300" y="365" width="50" height="50" as="geometry" />
        </mxCell>
        <mxCell id="dYqTEQ69nzzV-26pdnG4-101" value="&lt;b style=&quot;forced-color-adjust: none; color: rgb(0, 0, 0); font-family: Helvetica; font-style: normal; font-variant-ligatures: normal; font-variant-caps: normal; letter-spacing: normal; orphans: 2; text-align: center; text-indent: 0px; text-transform: none; widows: 2; word-spacing: 0px; -webkit-text-stroke-width: 0px; white-space: normal; background-color: rgb(251, 251, 251); text-decoration-thickness: initial; text-decoration-style: initial; text-decoration-color: initial; font-size: 15px;&quot;&gt;use(3, 4) = {n}&lt;/b&gt;" style="text;whiteSpace=wrap;html=1;" vertex="1" parent="1">
          <mxGeometry x="1385" y="360" width="115" height="30" as="geometry" />
        </mxCell>
        <mxCell id="dYqTEQ69nzzV-26pdnG4-102" value="&lt;b style=&quot;forced-color-adjust: none; color: rgb(0, 0, 0); font-family: Helvetica; font-style: normal; font-variant-ligatures: normal; font-variant-caps: normal; letter-spacing: normal; orphans: 2; text-align: center; text-indent: 0px; text-transform: none; widows: 2; word-spacing: 0px; -webkit-text-stroke-width: 0px; white-space: normal; background-color: rgb(251, 251, 251); text-decoration-thickness: initial; text-decoration-style: initial; text-decoration-color: initial; font-size: 15px;&quot;&gt;def(4) = {n}&lt;/b&gt;&lt;div&gt;&lt;div style=&quot;text-align: center;&quot;&gt;&lt;span style=&quot;font-size: 15px;&quot;&gt;&lt;b&gt;use(4) = {n}&lt;/b&gt;&lt;/span&gt;&lt;/div&gt;&lt;div&gt;&lt;b style=&quot;forced-color-adjust: none; color: rgb(0, 0, 0); font-family: Helvetica; font-style: normal; font-variant-ligatures: normal; font-variant-caps: normal; letter-spacing: normal; orphans: 2; text-align: center; text-indent: 0px; text-transform: none; widows: 2; word-spacing: 0px; -webkit-text-stroke-width: 0px; white-space: normal; background-color: rgb(251, 251, 251); text-decoration-thickness: initial; text-decoration-style: initial; text-decoration-color: initial; font-size: 15px;&quot;&gt;&lt;br&gt;&lt;/b&gt;&lt;/div&gt;&lt;/div&gt;" style="text;whiteSpace=wrap;html=1;" vertex="1" parent="1">
          <mxGeometry x="1210" y="365" width="140" height="40" as="geometry" />
        </mxCell>
        <mxCell id="dYqTEQ69nzzV-26pdnG4-103" value="" style="endArrow=classic;html=1;rounded=0;entryX=0.5;entryY=0;entryDx=0;entryDy=0;exitX=0.5;exitY=1;exitDx=0;exitDy=0;" edge="1" parent="1" source="dYqTEQ69nzzV-26pdnG4-96" target="dYqTEQ69nzzV-26pdnG4-104">
          <mxGeometry width="50" height="50" relative="1" as="geometry">
            <mxPoint x="1544" y="435" as="sourcePoint" />
            <mxPoint x="1544.44" y="505" as="targetPoint" />
            <Array as="points" />
          </mxGeometry>
        </mxCell>
        <mxCell id="dYqTEQ69nzzV-26pdnG4-104" value="" style="ellipse;whiteSpace=wrap;html=1;aspect=fixed;" vertex="1" parent="1">
          <mxGeometry x="1520" y="505" width="50" height="50" as="geometry" />
        </mxCell>
        <mxCell id="dYqTEQ69nzzV-26pdnG4-105" value="&lt;b style=&quot;forced-color-adjust: none; color: rgb(0, 0, 0); font-family: Helvetica; font-style: normal; font-variant-ligatures: normal; font-variant-caps: normal; letter-spacing: normal; orphans: 2; text-align: center; text-indent: 0px; text-transform: none; widows: 2; word-spacing: 0px; -webkit-text-stroke-width: 0px; white-space: normal; background-color: rgb(251, 251, 251); text-decoration-thickness: initial; text-decoration-style: initial; text-decoration-color: initial; font-size: 15px;&quot;&gt;use(3, 5) = {n}&lt;/b&gt;" style="text;whiteSpace=wrap;html=1;" vertex="1" parent="1">
          <mxGeometry x="1550" y="435" width="110" height="40" as="geometry" />
        </mxCell>
        <mxCell id="dYqTEQ69nzzV-26pdnG4-106" value="&lt;div style=&quot;text-align: center;&quot;&gt;&lt;span style=&quot;background-color: initial; font-size: 15px;&quot;&gt;&lt;b&gt;def(5) = {i}&lt;/b&gt;&lt;/span&gt;&lt;/div&gt;&lt;div style=&quot;text-align: center;&quot;&gt;&lt;span style=&quot;background-color: initial; font-size: 15px;&quot;&gt;&lt;b&gt;use(5) = {n}&lt;/b&gt;&lt;/span&gt;&lt;/div&gt;" style="text;whiteSpace=wrap;html=1;" vertex="1" parent="1">
          <mxGeometry x="1575" y="505" width="110" height="40" as="geometry" />
        </mxCell>
        <mxCell id="dYqTEQ69nzzV-26pdnG4-107" value="" style="endArrow=classic;html=1;rounded=0;exitX=0;exitY=0.5;exitDx=0;exitDy=0;entryX=1;entryY=0.5;entryDx=0;entryDy=0;" edge="1" parent="1" source="dYqTEQ69nzzV-26pdnG4-124" target="dYqTEQ69nzzV-26pdnG4-108">
          <mxGeometry width="50" height="50" relative="1" as="geometry">
            <mxPoint x="1520" y="529.5699999999999" as="sourcePoint" />
            <mxPoint x="1350" y="529.5699999999999" as="targetPoint" />
          </mxGeometry>
        </mxCell>
        <mxCell id="dYqTEQ69nzzV-26pdnG4-108" value="" style="ellipse;whiteSpace=wrap;html=1;aspect=fixed;strokeWidth=4;" vertex="1" parent="1">
          <mxGeometry x="1300" y="655" width="50" height="50" as="geometry" />
        </mxCell>
        <mxCell id="dYqTEQ69nzzV-26pdnG4-109" value="&lt;div style=&quot;text-align: center;&quot;&gt;&lt;span style=&quot;background-color: initial; font-size: 15px;&quot;&gt;&lt;b&gt;use(6, 15) = {i}&lt;/b&gt;&lt;/span&gt;&lt;/div&gt;" style="text;whiteSpace=wrap;html=1;" vertex="1" parent="1">
          <mxGeometry x="1395" y="655" width="120" height="30" as="geometry" />
        </mxCell>
        <mxCell id="dYqTEQ69nzzV-26pdnG4-111" value="" style="endArrow=classic;html=1;rounded=0;exitX=0.5;exitY=1;exitDx=0;exitDy=0;entryX=0.5;entryY=0;entryDx=0;entryDy=0;" edge="1" parent="1" source="dYqTEQ69nzzV-26pdnG4-104" target="dYqTEQ69nzzV-26pdnG4-124">
          <mxGeometry width="50" height="50" relative="1" as="geometry">
            <mxPoint x="1544.57" y="555" as="sourcePoint" />
            <mxPoint x="1545" y="685" as="targetPoint" />
            <Array as="points" />
          </mxGeometry>
        </mxCell>
        <mxCell id="dYqTEQ69nzzV-26pdnG4-112" value="" style="ellipse;whiteSpace=wrap;html=1;aspect=fixed;" vertex="1" parent="1">
          <mxGeometry x="1520" y="985" width="50" height="50" as="geometry" />
        </mxCell>
        <mxCell id="dYqTEQ69nzzV-26pdnG4-113" value="&lt;b style=&quot;forced-color-adjust: none; color: rgb(0, 0, 0); font-family: Helvetica; font-style: normal; font-variant-ligatures: normal; font-variant-caps: normal; letter-spacing: normal; orphans: 2; text-align: center; text-indent: 0px; text-transform: none; widows: 2; word-spacing: 0px; -webkit-text-stroke-width: 0px; white-space: normal; background-color: rgb(251, 251, 251); text-decoration-thickness: initial; text-decoration-style: initial; text-decoration-color: initial; font-size: 15px;&quot;&gt;use(6, 7) = {i}&lt;/b&gt;" style="text;whiteSpace=wrap;html=1;" vertex="1" parent="1">
          <mxGeometry x="1550" y="745" width="100" height="30" as="geometry" />
        </mxCell>
        <mxCell id="dYqTEQ69nzzV-26pdnG4-114" value="&lt;div style=&quot;text-align: center;&quot;&gt;&lt;b style=&quot;font-size: 15px; background-color: initial;&quot;&gt;def(7) = {f, j}&lt;/b&gt;&lt;br&gt;&lt;/div&gt;" style="text;whiteSpace=wrap;html=1;" vertex="1" parent="1">
          <mxGeometry x="1430" y="830" width="140" height="30" as="geometry" />
        </mxCell>
        <mxCell id="dYqTEQ69nzzV-26pdnG4-115" value="" style="endArrow=classic;html=1;rounded=0;exitX=1;exitY=0.5;exitDx=0;exitDy=0;entryX=0;entryY=0.5;entryDx=0;entryDy=0;" edge="1" parent="1" source="dYqTEQ69nzzV-26pdnG4-112" target="dYqTEQ69nzzV-26pdnG4-116">
          <mxGeometry width="50" height="50" relative="1" as="geometry">
            <mxPoint x="1520" y="1009.6599999999999" as="sourcePoint" />
            <mxPoint x="1710" y="1010" as="targetPoint" />
          </mxGeometry>
        </mxCell>
        <mxCell id="dYqTEQ69nzzV-26pdnG4-116" value="" style="ellipse;whiteSpace=wrap;html=1;aspect=fixed;" vertex="1" parent="1">
          <mxGeometry x="1730" y="985" width="50" height="50" as="geometry" />
        </mxCell>
        <mxCell id="dYqTEQ69nzzV-26pdnG4-117" value="&lt;b style=&quot;text-align: center; font-size: 15px;&quot;&gt;use(8, 12) = {i, j}&lt;/b&gt;" style="text;whiteSpace=wrap;html=1;" vertex="1" parent="1">
          <mxGeometry x="1590" y="985" width="120" height="40" as="geometry" />
        </mxCell>
        <mxCell id="dYqTEQ69nzzV-26pdnG4-118" value="" style="endArrow=classic;html=1;rounded=0;exitX=1;exitY=0.5;exitDx=0;exitDy=0;" edge="1" parent="1" source="dYqTEQ69nzzV-26pdnG4-116">
          <mxGeometry width="50" height="50" relative="1" as="geometry">
            <mxPoint x="1300" y="1009.44" as="sourcePoint" />
            <mxPoint x="1950" y="1010" as="targetPoint" />
          </mxGeometry>
        </mxCell>
        <mxCell id="dYqTEQ69nzzV-26pdnG4-119" value="" style="ellipse;whiteSpace=wrap;html=1;aspect=fixed;strokeWidth=4;" vertex="1" parent="1">
          <mxGeometry x="1950" y="985" width="50" height="50" as="geometry" />
        </mxCell>
        <mxCell id="dYqTEQ69nzzV-26pdnG4-121" value="&lt;b style=&quot;forced-color-adjust: none; color: rgb(0, 0, 0); font-family: Helvetica; font-style: normal; font-variant-ligatures: normal; font-variant-caps: normal; letter-spacing: normal; orphans: 2; text-align: center; text-indent: 0px; text-transform: none; widows: 2; word-spacing: 0px; -webkit-text-stroke-width: 0px; white-space: normal; background-color: rgb(251, 251, 251); text-decoration-thickness: initial; text-decoration-style: initial; text-decoration-color: initial; font-size: 15px;&quot;&gt;use(12, 16) = {f}&lt;/b&gt;" style="text;whiteSpace=wrap;html=1;" vertex="1" parent="1">
          <mxGeometry x="1800" y="980" width="120" height="40" as="geometry" />
        </mxCell>
        <mxCell id="dYqTEQ69nzzV-26pdnG4-122" value="" style="endArrow=classic;html=1;rounded=0;exitX=0.5;exitY=1;exitDx=0;exitDy=0;" edge="1" parent="1">
          <mxGeometry width="50" height="50" relative="1" as="geometry">
            <mxPoint x="1544.38" y="1035" as="sourcePoint" />
            <mxPoint x="1544" y="1135" as="targetPoint" />
            <Array as="points" />
          </mxGeometry>
        </mxCell>
        <mxCell id="dYqTEQ69nzzV-26pdnG4-123" style="edgeStyle=orthogonalEdgeStyle;rounded=0;orthogonalLoop=1;jettySize=auto;html=1;exitX=0.5;exitY=1;exitDx=0;exitDy=0;entryX=0.5;entryY=0;entryDx=0;entryDy=0;" edge="1" parent="1" source="dYqTEQ69nzzV-26pdnG4-124" target="dYqTEQ69nzzV-26pdnG4-139">
          <mxGeometry relative="1" as="geometry" />
        </mxCell>
        <mxCell id="dYqTEQ69nzzV-26pdnG4-124" value="" style="ellipse;whiteSpace=wrap;html=1;aspect=fixed;" vertex="1" parent="1">
          <mxGeometry x="1520" y="655" width="50" height="50" as="geometry" />
        </mxCell>
        <mxCell id="dYqTEQ69nzzV-26pdnG4-125" value="" style="endArrow=classic;html=1;rounded=0;exitX=0.5;exitY=0;exitDx=0;exitDy=0;entryX=0.5;entryY=1;entryDx=0;entryDy=0;" edge="1" parent="1" source="dYqTEQ69nzzV-26pdnG4-116" target="dYqTEQ69nzzV-26pdnG4-127">
          <mxGeometry width="50" height="50" relative="1" as="geometry">
            <mxPoint x="1555" y="715" as="sourcePoint" />
            <mxPoint x="1755" y="705" as="targetPoint" />
          </mxGeometry>
        </mxCell>
        <mxCell id="dYqTEQ69nzzV-26pdnG4-126" style="edgeStyle=orthogonalEdgeStyle;rounded=0;orthogonalLoop=1;jettySize=auto;html=1;exitX=0;exitY=0.5;exitDx=0;exitDy=0;entryX=1;entryY=0.5;entryDx=0;entryDy=0;" edge="1" parent="1" source="dYqTEQ69nzzV-26pdnG4-127" target="dYqTEQ69nzzV-26pdnG4-124">
          <mxGeometry relative="1" as="geometry" />
        </mxCell>
        <mxCell id="dYqTEQ69nzzV-26pdnG4-127" value="" style="ellipse;whiteSpace=wrap;html=1;aspect=fixed;" vertex="1" parent="1">
          <mxGeometry x="1730" y="655" width="50" height="50" as="geometry" />
        </mxCell>
        <mxCell id="dYqTEQ69nzzV-26pdnG4-128" value="&lt;b style=&quot;forced-color-adjust: none; color: rgb(0, 0, 0); font-family: Helvetica; font-style: normal; font-variant-ligatures: normal; font-variant-caps: normal; letter-spacing: normal; orphans: 2; text-align: center; text-indent: 0px; text-transform: none; widows: 2; word-spacing: 0px; -webkit-text-stroke-width: 0px; white-space: normal; background-color: rgb(251, 251, 251); text-decoration-thickness: initial; text-decoration-style: initial; text-decoration-color: initial; font-size: 15px;&quot;&gt;use(11, 12) = {f}&lt;/b&gt;" style="text;whiteSpace=wrap;html=1;" vertex="1" parent="1">
          <mxGeometry x="1760" y="825" width="120" height="40" as="geometry" />
        </mxCell>
        <mxCell id="dYqTEQ69nzzV-26pdnG4-129" value="&lt;b style=&quot;forced-color-adjust: none; color: rgb(0, 0, 0); font-family: Helvetica; font-style: normal; font-variant-ligatures: normal; font-variant-caps: normal; letter-spacing: normal; orphans: 2; text-align: center; text-indent: 0px; text-transform: none; widows: 2; word-spacing: 0px; -webkit-text-stroke-width: 0px; white-space: normal; background-color: rgb(251, 251, 251); text-decoration-thickness: initial; text-decoration-style: initial; text-decoration-color: initial; font-size: 15px;&quot;&gt;def(11) = {i}&lt;/b&gt;&lt;div&gt;&lt;b style=&quot;forced-color-adjust: none; color: rgb(0, 0, 0); font-family: Helvetica; font-style: normal; font-variant-ligatures: normal; font-variant-caps: normal; letter-spacing: normal; orphans: 2; text-align: center; text-indent: 0px; text-transform: none; widows: 2; word-spacing: 0px; -webkit-text-stroke-width: 0px; white-space: normal; background-color: rgb(251, 251, 251); text-decoration-thickness: initial; text-decoration-style: initial; text-decoration-color: initial; font-size: 15px;&quot;&gt;use(11) = {i}&lt;/b&gt;&lt;/div&gt;" style="text;whiteSpace=wrap;html=1;" vertex="1" parent="1">
          <mxGeometry x="1710" y="610" width="100" height="40" as="geometry" />
        </mxCell>
        <mxCell id="dYqTEQ69nzzV-26pdnG4-130" value="&lt;b style=&quot;forced-color-adjust: none; color: rgb(0, 0, 0); font-family: Helvetica; font-style: normal; font-variant-ligatures: normal; font-variant-caps: normal; letter-spacing: normal; orphans: 2; text-align: center; text-indent: 0px; text-transform: none; widows: 2; word-spacing: 0px; -webkit-text-stroke-width: 0px; white-space: normal; background-color: rgb(251, 251, 251); text-decoration-thickness: initial; text-decoration-style: initial; text-decoration-color: initial; font-size: 15px;&quot;&gt;use(8, 9) = {j, i}&lt;/b&gt;" style="text;whiteSpace=wrap;html=1;" vertex="1" parent="1">
          <mxGeometry x="1550" y="1065" width="110" height="40" as="geometry" />
        </mxCell>
        <mxCell id="dYqTEQ69nzzV-26pdnG4-131" style="edgeStyle=orthogonalEdgeStyle;rounded=0;orthogonalLoop=1;jettySize=auto;html=1;exitX=1;exitY=0.5;exitDx=0;exitDy=0;entryX=0;entryY=0.5;entryDx=0;entryDy=0;" edge="1" parent="1" source="dYqTEQ69nzzV-26pdnG4-132" target="dYqTEQ69nzzV-26pdnG4-141">
          <mxGeometry relative="1" as="geometry" />
        </mxCell>
        <mxCell id="dYqTEQ69nzzV-26pdnG4-132" value="" style="ellipse;whiteSpace=wrap;html=1;aspect=fixed;" vertex="1" parent="1">
          <mxGeometry x="1520" y="1135" width="50" height="50" as="geometry" />
        </mxCell>
        <mxCell id="dYqTEQ69nzzV-26pdnG4-133" value="" style="endArrow=classic;html=1;rounded=0;exitX=0;exitY=0.5;exitDx=0;exitDy=0;entryX=1;entryY=0.5;entryDx=0;entryDy=0;" edge="1" parent="1" source="dYqTEQ69nzzV-26pdnG4-132" target="dYqTEQ69nzzV-26pdnG4-135">
          <mxGeometry width="50" height="50" relative="1" as="geometry">
            <mxPoint x="1544.79" y="1185" as="sourcePoint" />
            <mxPoint x="1544.41" y="1285" as="targetPoint" />
            <Array as="points" />
          </mxGeometry>
        </mxCell>
        <mxCell id="dYqTEQ69nzzV-26pdnG4-134" style="edgeStyle=orthogonalEdgeStyle;rounded=0;orthogonalLoop=1;jettySize=auto;html=1;exitX=0.5;exitY=0;exitDx=0;exitDy=0;entryX=0;entryY=0.5;entryDx=0;entryDy=0;" edge="1" parent="1" source="dYqTEQ69nzzV-26pdnG4-135" target="dYqTEQ69nzzV-26pdnG4-112">
          <mxGeometry relative="1" as="geometry" />
        </mxCell>
        <mxCell id="dYqTEQ69nzzV-26pdnG4-135" value="" style="ellipse;whiteSpace=wrap;html=1;aspect=fixed;" vertex="1" parent="1">
          <mxGeometry x="1300" y="1135" width="50" height="50" as="geometry" />
        </mxCell>
        <mxCell id="dYqTEQ69nzzV-26pdnG4-136" value="&lt;b style=&quot;text-align: center; font-size: 15px;&quot;&gt;use(9, 13) = {j, i}&lt;/b&gt;" style="text;whiteSpace=wrap;html=1;" vertex="1" parent="1">
          <mxGeometry x="1382.5" y="1135" width="120" height="40" as="geometry" />
        </mxCell>
        <mxCell id="dYqTEQ69nzzV-26pdnG4-137" value="&lt;b style=&quot;forced-color-adjust: none; color: rgb(0, 0, 0); font-family: Helvetica; font-style: normal; font-variant-ligatures: normal; font-variant-caps: normal; letter-spacing: normal; orphans: 2; text-align: center; text-indent: 0px; text-transform: none; widows: 2; word-spacing: 0px; -webkit-text-stroke-width: 0px; white-space: normal; background-color: rgb(251, 251, 251); text-decoration-thickness: initial; text-decoration-style: initial; text-decoration-color: initial; font-size: 15px;&quot;&gt;def(13) = {j}&lt;/b&gt;&lt;div&gt;&lt;b style=&quot;forced-color-adjust: none; color: rgb(0, 0, 0); font-family: Helvetica; font-style: normal; font-variant-ligatures: normal; font-variant-caps: normal; letter-spacing: normal; orphans: 2; text-align: center; text-indent: 0px; text-transform: none; widows: 2; word-spacing: 0px; -webkit-text-stroke-width: 0px; white-space: normal; background-color: rgb(251, 251, 251); text-decoration-thickness: initial; text-decoration-style: initial; text-decoration-color: initial; font-size: 15px;&quot;&gt;use(13) = {j}&lt;/b&gt;&lt;/div&gt;" style="text;whiteSpace=wrap;html=1;" vertex="1" parent="1">
          <mxGeometry x="1280" y="1185" width="90" height="40" as="geometry" />
        </mxCell>
        <mxCell id="dYqTEQ69nzzV-26pdnG4-138" style="edgeStyle=orthogonalEdgeStyle;rounded=0;orthogonalLoop=1;jettySize=auto;html=1;exitX=0.5;exitY=1;exitDx=0;exitDy=0;entryX=0.5;entryY=0;entryDx=0;entryDy=0;" edge="1" parent="1" source="dYqTEQ69nzzV-26pdnG4-139" target="dYqTEQ69nzzV-26pdnG4-112">
          <mxGeometry relative="1" as="geometry" />
        </mxCell>
        <mxCell id="dYqTEQ69nzzV-26pdnG4-139" value="" style="ellipse;whiteSpace=wrap;html=1;aspect=fixed;" vertex="1" parent="1">
          <mxGeometry x="1520" y="825" width="50" height="50" as="geometry" />
        </mxCell>
        <mxCell id="dYqTEQ69nzzV-26pdnG4-140" style="edgeStyle=orthogonalEdgeStyle;rounded=0;orthogonalLoop=1;jettySize=auto;html=1;exitX=1;exitY=0.5;exitDx=0;exitDy=0;entryX=1;entryY=0.5;entryDx=0;entryDy=0;" edge="1" parent="1" source="dYqTEQ69nzzV-26pdnG4-141" target="dYqTEQ69nzzV-26pdnG4-127">
          <mxGeometry relative="1" as="geometry">
            <mxPoint x="1860" y="1160" as="sourcePoint" />
            <mxPoint x="1860" y="680" as="targetPoint" />
            <Array as="points">
              <mxPoint x="2040" y="1160" />
              <mxPoint x="2040" y="680" />
            </Array>
          </mxGeometry>
        </mxCell>
        <mxCell id="dYqTEQ69nzzV-26pdnG4-141" value="" style="ellipse;whiteSpace=wrap;html=1;aspect=fixed;" vertex="1" parent="1">
          <mxGeometry x="1805" y="1135" width="50" height="50" as="geometry" />
        </mxCell>
        <mxCell id="dYqTEQ69nzzV-26pdnG4-142" value="&lt;b style=&quot;text-align: center; font-size: 15px;&quot;&gt;use(9, 10) = {j, i}&lt;/b&gt;" style="text;whiteSpace=wrap;html=1;" vertex="1" parent="1">
          <mxGeometry x="1610" y="1135" width="130" height="40" as="geometry" />
        </mxCell>
        <mxCell id="dYqTEQ69nzzV-26pdnG4-143" value="&lt;b style=&quot;forced-color-adjust: none; color: rgb(0, 0, 0); font-family: Helvetica; font-style: normal; font-variant-ligatures: normal; font-variant-caps: normal; letter-spacing: normal; orphans: 2; text-align: center; text-indent: 0px; text-transform: none; widows: 2; word-spacing: 0px; -webkit-text-stroke-width: 0px; white-space: normal; background-color: rgb(251, 251, 251); text-decoration-thickness: initial; text-decoration-style: initial; text-decoration-color: initial; font-size: 15px;&quot;&gt;def(10) = {f}&lt;/b&gt;" style="text;whiteSpace=wrap;html=1;" vertex="1" parent="1">
          <mxGeometry x="1790" y="1185" width="90" height="40" as="geometry" />
        </mxCell>
        <mxCell id="dYqTEQ69nzzV-26pdnG4-144" value="&lt;b style=&quot;forced-color-adjust: none; color: rgb(0, 0, 0); font-family: Helvetica; font-style: normal; font-variant-ligatures: normal; font-variant-caps: normal; letter-spacing: normal; orphans: 2; text-align: center; text-indent: 0px; text-transform: none; widows: 2; word-spacing: 0px; -webkit-text-stroke-width: 0px; white-space: normal; background-color: rgb(251, 251, 251); text-decoration-thickness: initial; text-decoration-style: initial; text-decoration-color: initial; font-size: 15px;&quot;&gt;break&lt;/b&gt;" style="text;whiteSpace=wrap;html=1;" vertex="1" parent="1">
          <mxGeometry x="1980" y="655" width="90" height="40" as="geometry" />
        </mxCell>
        <mxCell id="dYqTEQ69nzzV-26pdnG4-145" value="&lt;b&gt;&lt;font style=&quot;font-size: 16px;&quot;&gt;1&lt;/font&gt;&lt;/b&gt;" style="text;html=1;align=center;verticalAlign=middle;whiteSpace=wrap;rounded=0;" vertex="1" parent="1">
          <mxGeometry x="1515" y="125" width="60" height="30" as="geometry" />
        </mxCell>
        <mxCell id="dYqTEQ69nzzV-26pdnG4-146" value="&lt;b&gt;&lt;font style=&quot;font-size: 16px;&quot;&gt;2&lt;/font&gt;&lt;/b&gt;" style="text;html=1;align=center;verticalAlign=middle;whiteSpace=wrap;rounded=0;" vertex="1" parent="1">
          <mxGeometry x="1515" y="235" width="60" height="30" as="geometry" />
        </mxCell>
        <mxCell id="dYqTEQ69nzzV-26pdnG4-147" value="&lt;b&gt;&lt;font style=&quot;font-size: 16px;&quot;&gt;3&lt;/font&gt;&lt;/b&gt;" style="text;html=1;align=center;verticalAlign=middle;whiteSpace=wrap;rounded=0;" vertex="1" parent="1">
          <mxGeometry x="1515" y="375" width="60" height="30" as="geometry" />
        </mxCell>
        <mxCell id="dYqTEQ69nzzV-26pdnG4-148" value="&lt;b&gt;&lt;font style=&quot;font-size: 16px;&quot;&gt;4&lt;/font&gt;&lt;/b&gt;" style="text;html=1;align=center;verticalAlign=middle;whiteSpace=wrap;rounded=0;" vertex="1" parent="1">
          <mxGeometry x="1295" y="375" width="60" height="30" as="geometry" />
        </mxCell>
        <mxCell id="dYqTEQ69nzzV-26pdnG4-149" value="&lt;b&gt;&lt;font style=&quot;font-size: 16px;&quot;&gt;5&lt;/font&gt;&lt;/b&gt;" style="text;html=1;align=center;verticalAlign=middle;whiteSpace=wrap;rounded=0;" vertex="1" parent="1">
          <mxGeometry x="1515" y="515" width="60" height="30" as="geometry" />
        </mxCell>
        <mxCell id="dYqTEQ69nzzV-26pdnG4-150" value="&lt;b&gt;&lt;font style=&quot;font-size: 16px;&quot;&gt;6&lt;/font&gt;&lt;/b&gt;" style="text;html=1;align=center;verticalAlign=middle;whiteSpace=wrap;rounded=0;" vertex="1" parent="1">
          <mxGeometry x="1515" y="665" width="60" height="30" as="geometry" />
        </mxCell>
        <mxCell id="dYqTEQ69nzzV-26pdnG4-151" value="&lt;b&gt;&lt;font style=&quot;font-size: 16px;&quot;&gt;7&lt;/font&gt;&lt;/b&gt;" style="text;html=1;align=center;verticalAlign=middle;whiteSpace=wrap;rounded=0;" vertex="1" parent="1">
          <mxGeometry x="1515" y="835" width="60" height="30" as="geometry" />
        </mxCell>
        <mxCell id="dYqTEQ69nzzV-26pdnG4-152" value="&lt;b&gt;&lt;font style=&quot;font-size: 16px;&quot;&gt;8&lt;/font&gt;&lt;/b&gt;" style="text;html=1;align=center;verticalAlign=middle;whiteSpace=wrap;rounded=0;" vertex="1" parent="1">
          <mxGeometry x="1515" y="995" width="60" height="30" as="geometry" />
        </mxCell>
        <mxCell id="dYqTEQ69nzzV-26pdnG4-153" value="&lt;b&gt;&lt;font style=&quot;font-size: 16px;&quot;&gt;9&lt;/font&gt;&lt;/b&gt;" style="text;html=1;align=center;verticalAlign=middle;whiteSpace=wrap;rounded=0;" vertex="1" parent="1">
          <mxGeometry x="1515" y="1145" width="60" height="30" as="geometry" />
        </mxCell>
        <mxCell id="dYqTEQ69nzzV-26pdnG4-154" value="&lt;b&gt;&lt;font style=&quot;font-size: 16px;&quot;&gt;10&lt;/font&gt;&lt;/b&gt;" style="text;html=1;align=center;verticalAlign=middle;whiteSpace=wrap;rounded=0;" vertex="1" parent="1">
          <mxGeometry x="1800" y="1145" width="60" height="30" as="geometry" />
        </mxCell>
        <mxCell id="dYqTEQ69nzzV-26pdnG4-155" value="&lt;b&gt;&lt;font style=&quot;font-size: 16px;&quot;&gt;11&lt;/font&gt;&lt;/b&gt;" style="text;html=1;align=center;verticalAlign=middle;whiteSpace=wrap;rounded=0;" vertex="1" parent="1">
          <mxGeometry x="1725" y="665" width="60" height="30" as="geometry" />
        </mxCell>
        <mxCell id="dYqTEQ69nzzV-26pdnG4-156" value="&lt;b&gt;&lt;font style=&quot;font-size: 16px;&quot;&gt;12&lt;/font&gt;&lt;/b&gt;" style="text;html=1;align=center;verticalAlign=middle;whiteSpace=wrap;rounded=0;" vertex="1" parent="1">
          <mxGeometry x="1725" y="995" width="60" height="30" as="geometry" />
        </mxCell>
        <mxCell id="dYqTEQ69nzzV-26pdnG4-157" value="&lt;b&gt;&lt;font style=&quot;font-size: 16px;&quot;&gt;13&lt;/font&gt;&lt;/b&gt;" style="text;html=1;align=center;verticalAlign=middle;whiteSpace=wrap;rounded=0;" vertex="1" parent="1">
          <mxGeometry x="1295" y="1145" width="60" height="30" as="geometry" />
        </mxCell>
        <mxCell id="dYqTEQ69nzzV-26pdnG4-158" value="&lt;b&gt;&lt;font style=&quot;font-size: 16px;&quot;&gt;14&lt;/font&gt;&lt;/b&gt;" style="text;html=1;align=center;verticalAlign=middle;whiteSpace=wrap;rounded=0;" vertex="1" parent="1">
          <mxGeometry x="1295" y="235" width="60" height="30" as="geometry" />
        </mxCell>
        <mxCell id="dYqTEQ69nzzV-26pdnG4-159" value="&lt;b&gt;&lt;font style=&quot;font-size: 16px;&quot;&gt;15&lt;/font&gt;&lt;/b&gt;" style="text;html=1;align=center;verticalAlign=middle;whiteSpace=wrap;rounded=0;" vertex="1" parent="1">
          <mxGeometry x="1295" y="665" width="60" height="30" as="geometry" />
        </mxCell>
        <mxCell id="dYqTEQ69nzzV-26pdnG4-160" value="&lt;b&gt;&lt;font style=&quot;font-size: 16px;&quot;&gt;16&lt;/font&gt;&lt;/b&gt;" style="text;html=1;align=center;verticalAlign=middle;whiteSpace=wrap;rounded=0;" vertex="1" parent="1">
          <mxGeometry x="1945" y="995" width="60" height="30" as="geometry" />
        </mxCell>
      </root>
    </mxGraphModel>
  </diagram>
</mxfile>
